<mxfile host="Electron" agent="Mozilla/5.0 (X11; Linux x86_64) AppleWebKit/537.36 (KHTML, like Gecko) draw.io/26.0.9 Chrome/128.0.6613.186 Electron/32.2.5 Safari/537.36" version="26.0.9">
  <diagram name="Page-1" id="bP7QOVqqB6LoUAiwYSG2">
    <mxGraphModel dx="1111" dy="702" grid="1" gridSize="10" guides="1" tooltips="1" connect="1" arrows="1" fold="1" page="1" pageScale="1" pageWidth="850" pageHeight="1100" math="0" shadow="0">
      <root>
        <mxCell id="0" />
        <mxCell id="1" parent="0" />
        <mxCell id="XgJeZKAawIUONZ9z8ICG-15" value="" style="edgeStyle=orthogonalEdgeStyle;rounded=0;orthogonalLoop=1;jettySize=auto;html=1;entryX=0;entryY=0.5;entryDx=0;entryDy=0;fontColor=#B5739D;strokeColor=#B5739D;" parent="1" source="XgJeZKAawIUONZ9z8ICG-16" target="XgJeZKAawIUONZ9z8ICG-20" edge="1">
          <mxGeometry relative="1" as="geometry">
            <mxPoint x="217" y="89" as="targetPoint" />
          </mxGeometry>
        </mxCell>
        <mxCell id="XgJeZKAawIUONZ9z8ICG-16" value="&lt;font style=&quot;font-size: 16px; color: rgb(181, 115, 157);&quot;&gt;Status Line&lt;/font&gt;" style="text;html=1;align=left;verticalAlign=middle;whiteSpace=wrap;rounded=0;container=0;" parent="1" vertex="1">
          <mxGeometry x="40" y="70" width="98" height="30" as="geometry" />
        </mxCell>
        <mxCell id="XgJeZKAawIUONZ9z8ICG-19" value="Response Message" style="swimlane;whiteSpace=wrap;html=1;container=0;" parent="1" vertex="1">
          <mxGeometry x="170" y="40" width="330" height="300" as="geometry">
            <mxRectangle x="150" y="90" width="190" height="30" as="alternateBounds" />
          </mxGeometry>
        </mxCell>
        <mxCell id="XgJeZKAawIUONZ9z8ICG-21" value="&lt;font style=&quot;color: rgb(103, 171, 159); font-size: 16px;&quot;&gt;&lt;b&gt;Date&lt;/b&gt;: Tue, 30 Jan 2025 12:00:00 GMT&amp;nbsp;&lt;/font&gt;&lt;div&gt;&lt;font style=&quot;color: rgb(103, 171, 159); font-size: 16px;&quot;&gt;&lt;b&gt;Server&lt;/b&gt;: Apache/2.4.46 (Ubuntu)&amp;nbsp;&lt;/font&gt;&lt;/div&gt;&lt;div&gt;&lt;font style=&quot;color: rgb(103, 171, 159); font-size: 16px;&quot;&gt;&lt;b&gt;Content-Type&lt;/b&gt;: text/html; charset=UTF-8&amp;nbsp;&lt;/font&gt;&lt;/div&gt;&lt;div&gt;&lt;font style=&quot;color: rgb(103, 171, 159); font-size: 16px;&quot;&gt;&lt;b&gt;Content-Length&lt;/b&gt;: 1234&lt;br&gt;&lt;/font&gt;&lt;/div&gt;" style="text;html=1;align=left;verticalAlign=middle;whiteSpace=wrap;rounded=0;container=0;" parent="XgJeZKAawIUONZ9z8ICG-19" vertex="1">
          <mxGeometry x="28" y="50" width="302" height="110" as="geometry" />
        </mxCell>
        <mxCell id="XgJeZKAawIUONZ9z8ICG-20" value="&lt;font style=&quot;font-size: 16px; color: rgb(181, 115, 157);&quot;&gt;HTTP/1.1 200 OK&lt;/font&gt;" style="text;html=1;align=left;verticalAlign=middle;whiteSpace=wrap;rounded=0;labelPosition=center;verticalLabelPosition=middle;container=0;" parent="1" vertex="1">
          <mxGeometry x="198" y="62.5" width="194" height="45" as="geometry" />
        </mxCell>
        <mxCell id="fL6SvUwrFV5KyUuBMJEQ-7" value="" style="group" vertex="1" connectable="0" parent="1">
          <mxGeometry x="40" y="200" width="460" height="130" as="geometry" />
        </mxCell>
        <mxCell id="XgJeZKAawIUONZ9z8ICG-22" value="&lt;font style=&quot;font-size: 16px; color: rgb(126, 166, 224);&quot;&gt;&lt;span class=&quot;hljs-tag&quot;&gt;&amp;lt;&lt;span class=&quot;hljs-name&quot;&gt;html&lt;/span&gt;&amp;gt;&lt;/span&gt;&lt;br&gt;&lt;span class=&quot;hljs-tag&quot;&gt;&amp;lt;&lt;span class=&quot;hljs-name&quot;&gt;head&lt;/span&gt;&amp;gt;&lt;/span&gt;&lt;span class=&quot;hljs-tag&quot;&gt;&amp;lt;&lt;span class=&quot;hljs-name&quot;&gt;title&lt;/span&gt;&amp;gt;&lt;/span&gt;Example&lt;span class=&quot;hljs-tag&quot;&gt;&amp;lt;/&lt;span class=&quot;hljs-name&quot;&gt;title&lt;/span&gt;&amp;gt;&lt;/span&gt;&lt;span class=&quot;hljs-tag&quot;&gt;&amp;lt;/&lt;span class=&quot;hljs-name&quot;&gt;head&lt;/span&gt;&amp;gt;&lt;/span&gt;&lt;br&gt;  &lt;span class=&quot;hljs-tag&quot;&gt;&amp;lt;&lt;span class=&quot;hljs-name&quot;&gt;body&lt;/span&gt;&amp;gt;&lt;/span&gt;&lt;br&gt;    &lt;span class=&quot;hljs-tag&quot;&gt;&lt;span style=&quot;white-space: pre;&quot;&gt;&#x9;&lt;/span&gt;&amp;lt;&lt;span class=&quot;hljs-name&quot;&gt;h1&lt;/span&gt;&amp;gt;&lt;/span&gt;Hello, World!&lt;span class=&quot;hljs-tag&quot;&gt;&amp;lt;/&lt;span class=&quot;hljs-name&quot;&gt;h1&lt;/span&gt;&amp;gt;&lt;/span&gt;&lt;br&gt;  &lt;span class=&quot;hljs-tag&quot;&gt;&amp;lt;/&lt;span class=&quot;hljs-name&quot;&gt;body&lt;/span&gt;&amp;gt;&lt;/span&gt;&lt;br&gt;&lt;span class=&quot;hljs-tag&quot;&gt;&amp;lt;/&lt;span class=&quot;hljs-name&quot;&gt;html&lt;/span&gt;&amp;gt;&lt;/span&gt;&lt;/font&gt;&lt;div&gt;&lt;br&gt;&lt;/div&gt;" style="text;html=1;align=left;verticalAlign=middle;whiteSpace=wrap;rounded=0;labelPosition=center;verticalLabelPosition=middle;container=0;" parent="fL6SvUwrFV5KyUuBMJEQ-7" vertex="1">
          <mxGeometry x="158" width="302" height="130" as="geometry" />
        </mxCell>
        <mxCell id="fL6SvUwrFV5KyUuBMJEQ-4" value="" style="group" vertex="1" connectable="0" parent="fL6SvUwrFV5KyUuBMJEQ-7">
          <mxGeometry y="50" width="50" height="30" as="geometry" />
        </mxCell>
        <mxCell id="XgJeZKAawIUONZ9z8ICG-23" value="&lt;font style=&quot;font-size: 16px; color: rgb(126, 166, 224);&quot;&gt;Body&lt;/font&gt;" style="text;html=1;align=left;verticalAlign=middle;whiteSpace=wrap;rounded=0;container=0;" parent="fL6SvUwrFV5KyUuBMJEQ-4" vertex="1">
          <mxGeometry width="50" height="30" as="geometry" />
        </mxCell>
        <mxCell id="XgJeZKAawIUONZ9z8ICG-24" style="edgeStyle=orthogonalEdgeStyle;rounded=0;orthogonalLoop=1;jettySize=auto;html=1;entryX=0;entryY=0.5;entryDx=0;entryDy=0;fontColor=#7EA6E0;strokeColor=#7EA6E0;" parent="fL6SvUwrFV5KyUuBMJEQ-7" source="XgJeZKAawIUONZ9z8ICG-23" target="XgJeZKAawIUONZ9z8ICG-22" edge="1">
          <mxGeometry relative="1" as="geometry" />
        </mxCell>
        <mxCell id="XgJeZKAawIUONZ9z8ICG-18" value="&lt;font style=&quot;font-size: 16px; color: rgb(103, 171, 159);&quot;&gt;Headers&lt;/font&gt;" style="text;html=1;align=left;verticalAlign=middle;whiteSpace=wrap;rounded=0;container=0;" parent="1" vertex="1">
          <mxGeometry x="40" y="130" width="70" height="30" as="geometry" />
        </mxCell>
        <mxCell id="XgJeZKAawIUONZ9z8ICG-17" value="" style="edgeStyle=orthogonalEdgeStyle;rounded=0;orthogonalLoop=1;jettySize=auto;html=1;strokeColor=#67AB9F;entryX=0;entryY=0.5;entryDx=0;entryDy=0;" parent="1" source="XgJeZKAawIUONZ9z8ICG-18" target="XgJeZKAawIUONZ9z8ICG-21" edge="1">
          <mxGeometry relative="1" as="geometry">
            <mxPoint x="200" y="145" as="targetPoint" />
          </mxGeometry>
        </mxCell>
      </root>
    </mxGraphModel>
  </diagram>
</mxfile>
